<svg xmlns="http://www.w3.org/2000/svg" viewBox="0 0 51.62 51.62"><defs><style>.cls-1,.cls-2,.cls-3{fill:#fff;}.cls-1{opacity:0.4;}.cls-2{opacity:0.65;}</style></defs><g id="Capa_2" data-name="Capa 2"><g id="Capa_1-2" data-name="Capa 1"><path class="cls-1" d="M51.62,1.48V51.25L35.91,12.11A10.72,10.72,0,0,0,20.2,7.05,44.29,44.29,0,0,1,31.76,1.76l.37-.1.2-.06.24-.07.3-.08.37-.09.25-.06.16,0,.26-.07.17,0,.18,0,.19,0L35.54.84l.35-.07.27-.05.18,0h.08l.24-.05.26,0,.23,0,.91-.13.19,0h.06l.28,0L39,.3h0l.65-.07.2,0,.24,0,.11,0,.34,0h.08l.23,0H41l.44,0h.24l.45,0h8A1.48,1.48,0,0,1,51.62,1.48Z"/><path class="cls-2" d="M51.62,51.25v.37H1.48A1.48,1.48,0,0,1,0,50.14V43.77c0-.12,0-.23,0-.34v-.32c0-.23,0-.47,0-.7a2.18,2.18,0,0,0,0-.25c0-.09,0-.19,0-.28,0-.34,0-.67.06-1,0-.08,0-.16,0-.23a.76.76,0,0,1,0-.15l0-.31,0-.35c0-.14,0-.27,0-.41s0-.14,0-.3c0-.33.08-.6.09-.69s.08-.59.14-1c0-.09,0-.17,0-.26s0-.33.08-.5l0-.19.06-.3a1.77,1.77,0,0,1,0-.2,2.93,2.93,0,0,1,.05-.29l.09-.44L1,35,1,34.66c.08-.36.17-.72.25-1.08l.09-.33L1.42,33a1,1,0,0,1,0-.17l.18-.65c0-.09.05-.19.08-.28v0l.09-.29c.05-.2.11-.39.18-.59a1.87,1.87,0,0,1,.07-.22c.11-.36.23-.71.35-1.07l.09-.25L2.68,29l.09-.25.39-1a1.86,1.86,0,0,0,.1-.25c0-.08.07-.16.11-.25a5.16,5.16,0,0,1,.21-.49l.18-.43.09-.2.09-.19A1,1,0,0,1,4,25.75c.14-.32.3-.65.45-1,.07-.15.14-.29.22-.43l.15-.31L5,23.81l.13-.23c.08-.16.16-.32.25-.47s.08-.16.13-.24l.12-.21c.27-.49.54-1,.83-1.43L6.56,21l.11-.18.13-.2c.25-.4.51-.8.78-1.19l.17-.25L8,18.81a1.13,1.13,0,0,1,.1-.13l.16-.23c.33-.46.66-.91,1-1.35l.13-.16.12-.16.17-.21.58-.71.13-.15.16-.19.22-.26.36-.4.16-.18.84-.92.22-.23.5-.5.19-.19c.53-.54,1.09-1.06,1.65-1.57l.18-.15L15,11l.18-.15.34-.29.21-.18.82-.68.23-.18L17.39,9l.27-.21.27-.2.45-.32.19-.13c.29-.22.59-.42.9-.63l.2-.14.53-.35a10.72,10.72,0,0,1,15.71,5.06Z"/><path class="cls-3" d="M51.62,51.62q-15-13.59-30-27.18a17.27,17.27,0,0,0,8.4-4,17.2,17.2,0,0,0,5.38-9.2s0,0,0,0l.23.58Z"/></g></g></svg>