<svg xmlns="http://www.w3.org/2000/svg" viewBox="0 0 215.2 51.62"><defs><style>.cls-1,.cls-2,.cls-3{fill:#fff;}.cls-1{opacity:0.4;}.cls-2{opacity:0.65;}</style></defs><g id="Capa_2" data-name="Capa 2"><g id="Capa_1-2" data-name="Capa 1"><path class="cls-1" d="M51.62,1.48V51.25L35.91,12.11A10.72,10.72,0,0,0,20.2,7.05,44.29,44.29,0,0,1,31.76,1.76l.37-.1.2-.06.24-.07.3-.08.37-.09.25-.06.16,0,.26-.07.17,0,.18,0,.19,0L35.54.84l.35-.07.27-.05.18,0h.08l.24-.05.26,0,.23,0,.91-.13.19,0h.06l.28,0L39,.3h0l.65-.07.2,0,.24,0,.11,0,.34,0h.08l.23,0H41l.44,0h.24l.45,0h8A1.48,1.48,0,0,1,51.62,1.48Z"/><path class="cls-2" d="M51.62,51.25v.37H1.48A1.48,1.48,0,0,1,0,50.14V43.77c0-.12,0-.23,0-.34v-.32c0-.23,0-.47,0-.7a2.18,2.18,0,0,0,0-.25c0-.09,0-.19,0-.28,0-.34,0-.67.06-1,0-.08,0-.16,0-.23a.76.76,0,0,1,0-.15l0-.31,0-.35c0-.14,0-.27,0-.41s0-.14,0-.3c0-.33.08-.6.09-.69s.08-.59.14-1c0-.09,0-.17,0-.26s0-.33.08-.5l0-.19.06-.3a1.77,1.77,0,0,1,0-.2,2.93,2.93,0,0,1,.05-.29l.09-.44L1,35,1,34.66c.08-.36.17-.72.25-1.08l.09-.33L1.42,33a1,1,0,0,1,0-.17l.18-.65c0-.09.05-.19.08-.28v0l.09-.29c.05-.2.11-.39.18-.59a1.87,1.87,0,0,1,.07-.22c.11-.36.23-.71.35-1.07l.09-.25L2.68,29l.09-.25.39-1a1.86,1.86,0,0,0,.1-.25c0-.08.07-.16.11-.25a5.16,5.16,0,0,1,.21-.49l.18-.43.09-.2.09-.19A1,1,0,0,1,4,25.75c.14-.32.3-.65.45-1,.07-.15.14-.29.22-.43l.15-.31L5,23.81l.13-.23c.08-.16.16-.32.25-.47s.08-.16.13-.24l.12-.21c.27-.49.54-1,.83-1.43L6.56,21l.11-.18.13-.2c.25-.4.51-.8.78-1.19l.17-.25L8,18.81a1.13,1.13,0,0,1,.1-.13l.16-.23c.33-.46.66-.91,1-1.35l.13-.16.12-.16.17-.21.58-.71.13-.15.16-.19.22-.26.36-.4.16-.18.84-.92.22-.23.5-.5.19-.19c.53-.54,1.09-1.06,1.65-1.57l.18-.15L15,11l.18-.15.34-.29.21-.18.82-.68.23-.18L17.39,9l.27-.21.27-.2.45-.32.19-.13c.29-.22.59-.42.9-.63l.2-.14.53-.35a10.72,10.72,0,0,1,15.71,5.06Z"/><path class="cls-3" d="M51.62,51.62q-15-13.59-30-27.18a17.27,17.27,0,0,0,8.4-4,17.2,17.2,0,0,0,5.38-9.2s0,0,0,0l.23.58Z"/><path class="cls-3" d="M77.46,6.49c-6.08,0-9.71,5.81-9.71,12.38,0,5.41,2.94,8.05,7.07,8.05a6.8,6.8,0,0,0,5.48-2.47c1.55-1.75,2.11-3.44,2.8-6.27H75.28l.43-1.89h9.84L82.94,28.38h-2l.86-3.44a8.25,8.25,0,0,1-7.33,3.87c-5.21,0-8.88-3.57-8.88-9.84,0-8.19,4.92-14.33,12-14.33,4.3,0,7.3,1.82,8.32,5.74l-2,.93C83,8,80.69,6.49,77.46,6.49Z"/><path class="cls-3" d="M87.73,28.38l3.56-16h1.92l-.66,2.87c1.15-2.11,2.74-3.07,4.42-3.07a4.16,4.16,0,0,1,2,.43l-.53,1.92a3.46,3.46,0,0,0-1.81-.5c-1.33,0-2.61.93-3.64,2.54a12,12,0,0,0-1.48,4l-1.75,7.86Z"/><path class="cls-3" d="M103.54,12.33l-1.81,8.19a19.5,19.5,0,0,0-.6,3.7c0,1.81,1,2.67,2.78,2.67a5.58,5.58,0,0,0,4.16-2.05c1.22-1.35,1.65-2.83,2.14-5.11l1.62-7.4h2l-3.54,16h-1.91l.63-2.71a6.88,6.88,0,0,1-5.62,2.94c-2.74,0-4.19-1.36-4.19-4a16.87,16.87,0,0,1,.56-3.86l1.88-8.39Z"/><path class="cls-3" d="M120.41,12.33,120,14.54a6.5,6.5,0,0,1,5.22-2.5c3.27,0,5.18,2.17,5.18,6.2,0,5.61-3.3,10.43-7.86,10.43a4.89,4.89,0,0,1-5-3.2l-2.15,9.71h-1.88l5-22.85ZM122.3,27c3.53,0,6.07-4.06,6.07-8.68,0-3.17-1.32-4.65-3.76-4.65-3.44,0-6.18,3.83-6.18,8.91C118.43,25.27,119.79,27,122.3,27Z"/><path class="cls-3" d="M141.38,11.94c3.86,0,6.07,2.41,6.07,6.86A12.06,12.06,0,0,1,146,24.88a7.44,7.44,0,0,1-6.64,3.86c-4.12,0-6.4-2.67-6.4-6.87C132.93,16.19,136.53,11.94,141.38,11.94Zm-.1,1.65a5.76,5.76,0,0,0-4.92,2.84,9.88,9.88,0,0,0-1.48,5.41c0,3.37,1.65,5.28,4.59,5.28,3.59,0,6-3.56,6-8.12C145.51,15.8,144.29,13.59,141.28,13.59Z"/><path class="cls-3" d="M163.86,28.38,155.61,5.07h3.07c3.07,9.18,5,14.53,6.7,20.2,1.62-5.64,3.47-11,6.64-20.2h3l-8.32,23.31Z"/><path class="cls-3" d="M189.58,28.38l-2.24-6.28H177.2L175,28.38h-3l9-23.31h3l8.71,23.31Zm-3.07-8.69c-1.42-3.89-2.83-7.75-4.19-11.65-.63,1.78-1.35,3.76-4.22,11.65Z"/><path class="cls-3" d="M195.13,28.38V5.07h2.81V25.8h11.92v2.58Z"/><path class="cls-3" d="M70.27,45.59a2.19,2.19,0,0,1-2.19,1.5c-1.65,0-2.51-1.13-2.51-2.84A2.45,2.45,0,0,1,68,41.53c1.46,0,2.25,1,2.26,2.91H66.43c0,1.16.59,1.93,1.67,1.93a1.31,1.31,0,0,0,1.42-1ZM68,42.23a1.53,1.53,0,0,0-1.56,1.55h3C69.34,42.66,68.78,42.23,68,42.23Z"/><path class="cls-3" d="M74.85,47v-.79a2,2,0,0,1-1.72.89c-1.23,0-2-1-2-2.74s1-2.74,2.16-2.74a1.68,1.68,0,0,1,1.59.78v-3h.84V47Zm-1.46-4.65c-.9,0-1.41.71-1.41,2s.53,2,1.37,2,1.51-.75,1.51-1.93C74.86,43.05,74.31,42.31,73.39,42.31Z"/><path class="cls-3" d="M77.15,40.35v-1H78v1Zm0,6.61V41.67H78V47Z"/><path class="cls-3" d="M81.69,46.93A2.67,2.67,0,0,1,81,47c-.72,0-1.2-.25-1.2-1.32V42.38h-.94v-.71h1V40h.84v1.71h1.06v.71H80.61v3.11c0,.59.17.84.6.84a1.14,1.14,0,0,0,.48-.11Z"/><path class="cls-3" d="M82.24,44.28a2.45,2.45,0,0,1,2.52-2.75c1.49,0,2.38,1.07,2.38,2.82s-.94,2.74-2.44,2.74S82.24,46,82.24,44.28Zm2.49-2c-1,0-1.62.77-1.62,2s.62,2.15,1.58,2.15,1.57-.76,1.57-2S85.68,42.25,84.73,42.25Z"/><path class="cls-3" d="M88.3,47V41.67h.8v.86a1.54,1.54,0,0,1,1.5-.92,2,2,0,0,1,.48.06v.9a1.06,1.06,0,0,0-.58-.14,1.2,1.2,0,0,0-1.15.68,2.64,2.64,0,0,0-.21,1.21V47Z"/><path class="cls-3" d="M91.85,40.35v-1h.87v1Zm0,6.61V41.67h.85V47Z"/><path class="cls-3" d="M97.14,43.28c0-.69-.36-1-1.09-1s-1.18.34-1.24,1.09l-.85-.1a1.89,1.89,0,0,1,2.13-1.71,1.87,1.87,0,0,1,1.47.53A2.11,2.11,0,0,1,98,43.61v1.7A6.85,6.85,0,0,0,98,46c0,.22.18.31.45.31l.2,0V47a3.25,3.25,0,0,1-.44,0c-.71,0-1-.27-1-.81a2,2,0,0,1-1.75.88,1.53,1.53,0,0,1-1.65-1.49,1.45,1.45,0,0,1,1-1.42,8.53,8.53,0,0,1,2.39-.42Zm0,1.06a6.6,6.6,0,0,0-1.92.34.87.87,0,0,0-.62.83c0,.57.4.85,1,.85a1.49,1.49,0,0,0,1.48-1.16,3,3,0,0,0,.06-.58Z"/><path class="cls-3" d="M99.38,47V39.4h.84V47Z"/><path class="cls-3" d="M102.5,46.94a1.75,1.75,0,0,1-.55,1.53l-.44-.32a1.4,1.4,0,0,0,.4-1.19h-.37V45.65h1Z"/><path class="cls-3" d="M107,41.67v.79a2.07,2.07,0,0,1,1.72-.89c1.23,0,2,1.06,2,2.77s-1,2.71-2.14,2.71a1.65,1.65,0,0,1-1.6-.78v2.85h-.84V41.67Zm1.46,4.65c.9,0,1.4-.69,1.4-2s-.52-2-1.36-2-1.51.75-1.51,1.93C107,45.58,107.55,46.32,108.47,46.32Z"/><path class="cls-3" d="M111.9,47V41.67h.8v.86a1.54,1.54,0,0,1,1.5-.92,2,2,0,0,1,.48.06v.9a1.06,1.06,0,0,0-.58-.14,1.2,1.2,0,0,0-1.15.68,2.64,2.64,0,0,0-.21,1.21V47Z"/><path class="cls-3" d="M115.45,40.35v-1h.87v1Zm0,6.61V41.67h.85V47Z"/><path class="cls-3" d="M121.19,47V43.77a1.93,1.93,0,0,0-.21-1.05,1,1,0,0,0-.88-.39,1.46,1.46,0,0,0-1.07.55,2.25,2.25,0,0,0-.4,1.54V47h-.84V41.67h.84v.82a2.12,2.12,0,0,1,1.78-.91,1.45,1.45,0,0,1,1.37.71,2.72,2.72,0,0,1,.25,1.44V47Z"/><path class="cls-3" d="M125.65,46.93a2.67,2.67,0,0,1-.73.1c-.72,0-1.2-.25-1.2-1.32V42.38h-.94v-.71h1V40h.83v1.71h1.06v.71h-1.06v3.11c0,.59.18.84.6.84a1.18,1.18,0,0,0,.49-.11Z"/><path class="cls-3" d="M132.66,47h-.25c-.47,0-.71-.22-.71-.64a1.17,1.17,0,0,1,0-.29,2.05,2.05,0,0,1-1.87,1,1.32,1.32,0,0,1-1.41-1.35,1.51,1.51,0,0,1,.63-1.27c.53-.35,1.14-.48,3.09-.6l.06-.26a3.38,3.38,0,0,0,.1-.7c0-.57-.44-.84-1.15-.84a1.47,1.47,0,0,0-1.58,1.21l-.42-.1a1.89,1.89,0,0,1,2.06-1.48c1,0,1.5.43,1.5,1.2a5.68,5.68,0,0,1-.18,1l-.36,1.66a3.63,3.63,0,0,0-.09.6c0,.31.14.43.48.43h.14Zm-.57-2.75a7.67,7.67,0,0,0-2.47.38,1.08,1.08,0,0,0-.73,1.11,1,1,0,0,0,1.07,1,1.81,1.81,0,0,0,1.31-.56,3.26,3.26,0,0,0,.73-1.49Z"/><path class="cls-3" d="M136.84,47l.59-2.64a6.37,6.37,0,0,0,.19-1.29c0-.63-.33-.92-1-.92a1.93,1.93,0,0,0-1.46.71,3.64,3.64,0,0,0-.79,1.92L133.93,47h-.41l1.13-5.15h.42l-.24,1a2.15,2.15,0,0,1,1.85-1.1c.88,0,1.37.41,1.37,1.29a6,6,0,0,1-.2,1.26l-.6,2.69Z"/><path class="cls-3" d="M142.67,47h-.4l.21-.93a1.91,1.91,0,0,1-1.71,1c-1.1,0-1.72-.72-1.72-1.94,0-1.88,1.15-3.39,2.67-3.39a1.37,1.37,0,0,1,1.47,1l.74-3.35h.41Zm-.41-1.13a4.75,4.75,0,0,0,.66-2.39c0-.92-.42-1.35-1.21-1.35-1.24,0-2.23,1.32-2.23,3,0,1,.49,1.56,1.29,1.56A1.81,1.81,0,0,0,142.26,45.83Z"/><path class="cls-3" d="M147.68,41.67v.79a2.07,2.07,0,0,1,1.72-.89c1.23,0,2,1.06,2,2.77s-.95,2.71-2.14,2.71a1.65,1.65,0,0,1-1.6-.78v2.85h-.84V41.67Zm1.46,4.65c.9,0,1.4-.69,1.4-2s-.52-2-1.36-2-1.51.75-1.51,1.93C147.67,45.58,148.22,46.32,149.14,46.32Z"/><path class="cls-3" d="M152.57,47V41.67h.8v.86a1.54,1.54,0,0,1,1.5-.92,2,2,0,0,1,.48.06v.9a1.06,1.06,0,0,0-.58-.14,1.2,1.2,0,0,0-1.15.68,2.64,2.64,0,0,0-.21,1.21V47Z"/><path class="cls-3" d="M155.58,44.28a2.45,2.45,0,0,1,2.52-2.75c1.49,0,2.38,1.07,2.38,2.82s-.94,2.74-2.44,2.74S155.58,46,155.58,44.28Zm2.49-2c-1,0-1.62.77-1.62,2s.63,2.15,1.58,2.15,1.57-.76,1.57-2S159,42.25,158.07,42.25Z"/><path class="cls-3" d="M168.15,47V44.12a3,3,0,0,0-.16-1.39.84.84,0,0,0-.78-.4,1.37,1.37,0,0,0-1,.4,2.32,2.32,0,0,0-.52,1.72V47h-.85V44.07a2.88,2.88,0,0,0-.14-1.29.78.78,0,0,0-.82-.45,1.39,1.39,0,0,0-1.07.57,2.22,2.22,0,0,0-.38,1.53V47h-.84V41.67h.84v.82a2.11,2.11,0,0,1,1.75-.91,1.36,1.36,0,0,1,1.42,1,2.09,2.09,0,0,1,1.86-1,1.33,1.33,0,0,1,1.43,1.15,9.86,9.86,0,0,1,.05,1.49V47Z"/><path class="cls-3" d="M170.09,44.28a2.45,2.45,0,0,1,2.52-2.75c1.49,0,2.38,1.07,2.38,2.82s-.94,2.74-2.44,2.74S170.09,46,170.09,44.28Zm2.49-2c-1,0-1.62.77-1.62,2s.63,2.15,1.58,2.15,1.57-.76,1.57-2S173.53,42.25,172.58,42.25Z"/><path class="cls-3" d="M211,7a2.73,2.73,0,0,1-.65-1.91,2.66,2.66,0,0,1,.66-1.9,2.55,2.55,0,0,1,3.51,0,2.7,2.7,0,0,1,.64,1.9A2.68,2.68,0,0,1,214.55,7,2.52,2.52,0,0,1,211,7Zm3.18-.31a2.43,2.43,0,0,0,.5-1.6,2.3,2.3,0,0,0-.51-1.59,2,2,0,0,0-2.84,0,2.34,2.34,0,0,0-.5,1.58,2.39,2.39,0,0,0,.5,1.61,1.81,1.81,0,0,0,1.43.57A1.78,1.78,0,0,0,214.22,6.66ZM212,3.59h.84a.75.75,0,0,1,.85.85.77.77,0,0,1-.4.75l.48,1.3h-.53l-.42-1.19h-.33V6.49H212Zm.8,1.26a.39.39,0,0,0,.31-.1.45.45,0,0,0,.09-.32.43.43,0,0,0-.09-.31.43.43,0,0,0-.31-.09h-.31v.82Z"/></g></g></svg>